<svg xmlns="http://www.w3.org/2000/svg" viewBox="0 0 64 64">
  <defs>
    <linearGradient id="cloudGrad" x1="0%" y1="0%" x2="100%" y2="100%">
      <stop offset="0%" style="stop-color:#6366f1"/>
      <stop offset="100%" style="stop-color:#8b5cf6"/>
    </linearGradient>
  </defs>
  <rect width="64" height="64" rx="14" fill="#0f0f23"/>
  <g transform="translate(12, 16)">
    <path d="M40 28c0-4.4-3.6-8-8-8-0.4 0-0.8 0-1.2 0.1C28.8 14.6 24.3 11 19 11c-6.6 0-12 5.4-12 12 0 0.3 0 0.7 0 1C3.4 25.1 1 28 1 31.5 1 35.6 4.4 39 8.5 39H31c5 0 9-4 9-9 0-0.7-0.1-1.4-0.3-2z" fill="url(#cloudGrad)"/>
  </g>
</svg>
